<?xml version="1.0" encoding="UTF-8"?>
<svg id="Capa_1" xmlns="http://www.w3.org/2000/svg" version="1.1" viewBox="0 0 595.28 841.89">
  <!-- Generator: Adobe Illustrator 29.0.1, SVG Export Plug-In . SVG Version: 2.1.0 Build 192)  -->
  <defs>
    <style>
      .st0, .st1, .st2, .st3 {
        isolation: isolate;
      }

      .st0, .st1, .st3 {
        font-size: 67.18px;
      }

      .st0, .st4 {
        fill: #f39200;
      }

      .st0, .st3 {
        font-family: MyriadPro-Regular, 'Myriad Pro';
      }

      .st1 {
        fill: #1d1d1b;
        font-family: ArialMT, Arial;
      }

      .st5, .st3 {
        fill: #fff;
      }

      .st6 {
        fill: #003f5c;
      }

      .st7 {
        fill: #1b375b;
      }
    </style>
  </defs>
  <rect class="st6" x="147.17" y="159.53" width="312.17" height="194.04"/>
  <g class="st2">
    <text class="st3" transform="translate(148.78 342.31)"><tspan x="0" y="0">Electric</tspan></text>
    <text class="st1" transform="translate(351.46 342.31)"><tspan x="0" y="0"> </tspan></text>
    <text class="st0" transform="translate(365.7 342.31)"><tspan x="0" y="0">GO</tspan></text>
  </g>
  <g>
    <path class="st5" d="M281.89,199.37c2.53-5.59,11.15-15.11,16.03-6.55,3.68,6.47-5.74,10.41-9.01,15.05l6.95,7-28.18,27.75c-8.34,3.62-13.27-10.48-20.1-13.22l-24.49,24.58c-8.58-3.27-4.09-13.65-4.05-20.61-6.25,2.96-14.91,17.18-19.96,19.48-3.16,1.44-8.44.06-11.95.51l37.55-38.92c9.16,3.4,2.66,13.39,4.36,20.93l12.94-12.5c-3.91-5.29-15.26-11.58-13.78-18.77.4-1.95,25.45-28.32,27.4-28.66,2.21-.39,5.5,6.24,7.71,5.86,3.71-.65,7.8-12.71,14.16-8.98,12.5,7.33-6.14,14.54-5.47,18.41,1.48,1.46,8.33,9.73,9.89,8.63h0Z"/>
    <path class="st4" d="M274.58,183.03c-1.51,1.69-7.42,5.15-6.5,7.66.36.98,11.59,12.46,12.46,12.61,6.14-2.03,10.74-16.28,16.3-7.43-1.28,1.95-11.93,11.15-11.93,12,0,1.41,7.33,4.51,5.5,8.48-.64,1.38-19.21,19.81-21.46,21.54-1.27.98-2.54,2.45-4.36,2.28-4.28-.4-27.05-27.32-32.64-31.24-.83-.85-1.02-1.81-.96-2.96.14-2.56,22.81-26.2,24.6-26.52,2.21-.39,5.5,6.24,7.71,5.86,4.1-.72,10.47-16.97,15.58-7.43-1.94,1.35-2.9,3.57-4.32,5.15h.02Z"/>
    <path class="st7" d="M221.04,227.37l-22.96,23.49h-5.98l33.42-32.5c2.06-.21,1.32.1,1.51,1.5.97,6.98-1.02,14.56-.99,21.52,3.07-1.33,16.23-16.99,17.45-16.98.34,0,2.6,2.27,2.42,3.35-.35,2.08-19.45,18.59-21.88,22.19-3.48.86-2.99-1.23-2.99-3.05v-19.52Z"/>
    <path class="st5" d="M313.67,247.73c-2.53,5.47-11.12,14.8-15.98,6.41-3.67-6.33,5.72-10.19,8.98-14.74l-6.93-6.85,28.1-27.17c8.31-3.54,13.23,10.26,20.04,12.95l24.42-24.06c8.55,3.21,4.08,13.36,4.04,20.18,6.23-2.9,14.86-16.82,19.9-19.07,3.15-1.41,8.41-.06,11.91-.5l-37.44,38.11c-9.14-3.33-2.66-13.11-4.35-20.49l-12.9,12.24c3.9,5.18,15.22,11.33,13.74,18.37-.4,1.91-25.37,27.72-27.32,28.06-2.2.38-5.48-6.11-7.69-5.73-3.7.64-7.78,12.44-14.12,8.79-12.46-7.18,6.12-14.24,5.45-18.03-1.48-1.43-8.31-9.53-9.86-8.45v-.02Z"/>
    <path class="st4" d="M320.95,263.72c1.51-1.66,7.4-5.04,6.48-7.5-.36-.96-11.56-12.2-12.43-12.35-6.13,1.99-10.71,15.94-16.25,7.27,1.28-1.91,11.89-10.92,11.89-11.75,0-1.38-7.31-4.42-5.49-8.3.63-1.35,19.16-19.39,21.4-21.08,1.27-.96,2.54-2.4,4.35-2.23,4.26.39,26.97,26.75,32.54,30.59.82.83,1.02,1.77.95,2.9-.14,2.51-22.74,25.66-24.53,25.96-2.2.38-5.48-6.11-7.69-5.73-4.09.7-10.44,16.62-15.54,7.27,1.93-1.32,2.89-3.5,4.3-5.05h.02Z"/>
    <path class="st7" d="M374.33,220.31l22.89-22.99h5.97l-33.33,31.82c-2.06.2-1.31-.1-1.51-1.47-.96-6.83,1.02-14.25.99-21.07-3.06,1.3-16.19,16.63-17.4,16.63-.34,0-2.59-2.22-2.41-3.28.35-2.04,19.39-18.2,21.82-21.72,3.47-.84,2.98,1.2,2.98,2.99v19.09h0Z"/>
  </g>
</svg>